<svg xmlns="http://www.w3.org/2000/svg" xmlns:xlink="http://www.w3.org/1999/xlink" contentStyleType="text/css" data-diagram-type="CLASS" height="170px" preserveAspectRatio="none" style="width:309px;height:170px;background:#FFFFFF;" version="1.1" viewBox="0 0 309 170" width="309px" zoomAndPan="magnify"><defs/><g><!--class PatriotUI--><g class="entity" data-entity="PatriotUI" data-source-line="1" data-uid="ent0002" id="entity_PatriotUI"><rect fill="#F1F1F1" height="48" rx="2.5" ry="2.5" style="stroke:#181818;stroke-width:0.5;" width="92.5869" x="95.47" y="7"/><ellipse cx="110.47" cy="23" fill="#ADD1B2" rx="11" ry="11" style="stroke:#181818;stroke-width:1;"/><path d="M113.4388,28.6406 Q112.8606,28.9375 112.22,29.0781 Q111.5794,29.2344 110.8763,29.2344 Q108.3763,29.2344 107.0481,27.5938 Q105.7356,25.9375 105.7356,22.8125 Q105.7356,19.6875 107.0481,18.0313 Q108.3763,16.375 110.8763,16.375 Q111.5794,16.375 112.22,16.5313 Q112.8763,16.6875 113.4388,16.9844 L113.4388,19.7031 Q112.8138,19.125 112.22,18.8594 Q111.6263,18.5781 111.0013,18.5781 Q109.6575,18.5781 108.97,19.6563 Q108.2825,20.7188 108.2825,22.8125 Q108.2825,24.9063 108.97,25.9844 Q109.6575,27.0469 111.0013,27.0469 Q111.6263,27.0469 112.22,26.7813 Q112.8138,26.5 113.4388,25.9219 L113.4388,28.6406 Z " fill="#000000"/><text fill="#000000" font-family="sans-serif" font-size="14" lengthAdjust="spacing" textLength="60.5869" x="124.47" y="27.8467">PatriotUI</text><line style="stroke:#181818;stroke-width:0.5;" x1="96.47" x2="187.0569" y1="39" y2="39"/><line style="stroke:#181818;stroke-width:0.5;" x1="96.47" x2="187.0569" y1="47" y2="47"/></g><!--class Radar--><g class="entity" data-entity="Radar" data-source-line="4" data-uid="ent0003" id="entity_Radar"><rect fill="#F1F1F1" height="48" rx="2.5" ry="2.5" style="stroke:#181818;stroke-width:0.5;" width="73.5283" x="7" y="115"/><ellipse cx="22" cy="131" fill="#ADD1B2" rx="11" ry="11" style="stroke:#181818;stroke-width:1;"/><path d="M24.9688,136.6406 Q24.3906,136.9375 23.75,137.0781 Q23.1094,137.2344 22.4063,137.2344 Q19.9063,137.2344 18.5781,135.5938 Q17.2656,133.9375 17.2656,130.8125 Q17.2656,127.6875 18.5781,126.0313 Q19.9063,124.375 22.4063,124.375 Q23.1094,124.375 23.75,124.5313 Q24.4063,124.6875 24.9688,124.9844 L24.9688,127.7031 Q24.3438,127.125 23.75,126.8594 Q23.1563,126.5781 22.5313,126.5781 Q21.1875,126.5781 20.5,127.6563 Q19.8125,128.7188 19.8125,130.8125 Q19.8125,132.9063 20.5,133.9844 Q21.1875,135.0469 22.5313,135.0469 Q23.1563,135.0469 23.75,134.7813 Q24.3438,134.5 24.9688,133.9219 L24.9688,136.6406 Z " fill="#000000"/><text fill="#000000" font-family="sans-serif" font-size="14" lengthAdjust="spacing" textLength="41.5283" x="36" y="135.8467">Radar</text><line style="stroke:#181818;stroke-width:0.5;" x1="8" x2="79.5283" y1="147" y2="147"/><line style="stroke:#181818;stroke-width:0.5;" x1="8" x2="79.5283" y1="155" y2="155"/></g><!--class IFF--><g class="entity" data-entity="IFF" data-source-line="7" data-uid="ent0004" id="entity_IFF"><rect fill="#F1F1F1" height="48" rx="2.5" ry="2.5" style="stroke:#181818;stroke-width:0.5;" width="52.2344" x="115.65" y="115"/><ellipse cx="130.65" cy="131" fill="#ADD1B2" rx="11" ry="11" style="stroke:#181818;stroke-width:1;"/><path d="M133.6188,136.6406 Q133.0406,136.9375 132.4,137.0781 Q131.7594,137.2344 131.0563,137.2344 Q128.5563,137.2344 127.2281,135.5938 Q125.9156,133.9375 125.9156,130.8125 Q125.9156,127.6875 127.2281,126.0313 Q128.5563,124.375 131.0563,124.375 Q131.7594,124.375 132.4,124.5313 Q133.0563,124.6875 133.6188,124.9844 L133.6188,127.7031 Q132.9938,127.125 132.4,126.8594 Q131.8063,126.5781 131.1813,126.5781 Q129.8375,126.5781 129.15,127.6563 Q128.4625,128.7188 128.4625,130.8125 Q128.4625,132.9063 129.15,133.9844 Q129.8375,135.0469 131.1813,135.0469 Q131.8063,135.0469 132.4,134.7813 Q132.9938,134.5 133.6188,133.9219 L133.6188,136.6406 Z " fill="#000000"/><text fill="#000000" font-family="sans-serif" font-size="14" lengthAdjust="spacing" textLength="20.2344" x="144.65" y="135.8467">IFF</text><line style="stroke:#181818;stroke-width:0.5;" x1="116.65" x2="166.8844" y1="147" y2="147"/><line style="stroke:#181818;stroke-width:0.5;" x1="116.65" x2="166.8844" y1="155" y2="155"/></g><!--class FiringUnit--><g class="entity" data-entity="FiringUnit" data-source-line="10" data-uid="ent0005" id="entity_FiringUnit"><rect fill="#F1F1F1" height="48" rx="2.5" ry="2.5" style="stroke:#181818;stroke-width:0.5;" width="99.8467" x="202.84" y="115"/><ellipse cx="217.84" cy="131" fill="#ADD1B2" rx="11" ry="11" style="stroke:#181818;stroke-width:1;"/><path d="M220.8088,136.6406 Q220.2306,136.9375 219.59,137.0781 Q218.9494,137.2344 218.2463,137.2344 Q215.7463,137.2344 214.4181,135.5938 Q213.1056,133.9375 213.1056,130.8125 Q213.1056,127.6875 214.4181,126.0313 Q215.7463,124.375 218.2463,124.375 Q218.9494,124.375 219.59,124.5313 Q220.2463,124.6875 220.8088,124.9844 L220.8088,127.7031 Q220.1838,127.125 219.59,126.8594 Q218.9963,126.5781 218.3713,126.5781 Q217.0275,126.5781 216.34,127.6563 Q215.6525,128.7188 215.6525,130.8125 Q215.6525,132.9063 216.34,133.9844 Q217.0275,135.0469 218.3713,135.0469 Q218.9963,135.0469 219.59,134.7813 Q220.1838,134.5 220.8088,133.9219 L220.8088,136.6406 Z " fill="#000000"/><text fill="#000000" font-family="sans-serif" font-size="14" lengthAdjust="spacing" textLength="67.8467" x="231.84" y="135.8467">FiringUnit</text><line style="stroke:#181818;stroke-width:0.5;" x1="203.84" x2="301.6867" y1="147" y2="147"/><line style="stroke:#181818;stroke-width:0.5;" x1="203.84" x2="301.6867" y1="155" y2="155"/></g><!--reverse link PatriotUI to Radar--><g class="link" data-entity-1="PatriotUI" data-entity-2="Radar" data-source-line="13" data-uid="lnk6" id="link_PatriotUI_Radar"><path codeLine="13" d="M112.1153,64.0727 C95.7753,81.7527 81.55,97.13 65.22,114.79" fill="none" id="PatriotUI-backto-Radar" style="stroke:#181818;stroke-width:1;"/><polygon fill="#181818" points="120.26,55.26,113.2501,56.9514,112.1153,64.0727,119.1252,62.3812,120.26,55.26" style="stroke:#181818;stroke-width:1;"/></g><!--reverse link PatriotUI to IFF--><g class="link" data-entity-1="PatriotUI" data-entity-2="IFF" data-source-line="14" data-uid="lnk7" id="link_PatriotUI_IFF"><path codeLine="14" d="M141.76,67.26 C141.76,84.94 141.76,97.13 141.76,114.79" fill="none" id="PatriotUI-backto-IFF" style="stroke:#181818;stroke-width:1;"/><polygon fill="#181818" points="141.76,55.26,137.76,61.26,141.76,67.26,145.76,61.26,141.76,55.26" style="stroke:#181818;stroke-width:1;"/></g><!--reverse link PatriotUI to FiringUnit--><g class="link" data-entity-1="PatriotUI" data-entity-2="FiringUnit" data-source-line="15" data-uid="lnk8" id="link_PatriotUI_FiringUnit"><path codeLine="15" d="M174.7976,63.5485 C193.3076,81.2285 209.97,97.13 228.46,114.79" fill="none" id="PatriotUI-backto-FiringUnit" style="stroke:#181818;stroke-width:1;"/><polygon fill="#181818" points="166.12,55.26,167.696,62.2968,174.7976,63.5485,173.2216,56.5117,166.12,55.26" style="stroke:#181818;stroke-width:1;"/></g><!--SRC=[Iyv9B2vM24WiAShCBmdrLAZcgkNYIWOB1YMc91OX2tYwkI5ptJABClFIG_CoIo2Y24EqT7KXkj74W0QWYI3C0000]--></g></svg>